# xmcd
#
# Track frame offsets:
# 150
# 24109
# 48140
# 66011
#
# Disc length: 1209 seconds
#
# Revision: 0
# Processed by: cddbd v1.5.2PL0 Copyright (c) Steve Scherf et al.
# Submitted via: TinyPlayer 2.7
#
DISCID=2304b704
DTITLE=Twenty One Scott - Zero Sum Rule and Three Rock Stars
DYEAR=2006
DGENRE=Rock
TTITLE0=We're Just Friends
TTITLE1=Zero Sum Rulez
TTITLE2=I Just Like Her
TTITLE3=Rock Star
EXTD=
EXTT0=
EXTT1=
EXTT2=
EXTT3=
PLAYORDER=
